<svg width="30" height="30" viewBox="0 0 30 30" fill="none" xmlns="http://www.w3.org/2000/svg">
<path d="M25.4125 4.5876C25.1761 4.35281 24.8794 4.18775 24.5553 4.11057C24.2311 4.03338 23.8919 4.04706 23.575 4.1501L5.28753 10.2501C4.94837 10.3576 4.64867 10.5631 4.42627 10.8408C4.20387 11.1185 4.06876 11.4559 4.03799 11.8104C4.00723 12.1648 4.0822 12.5204 4.25342 12.8323C4.42465 13.1442 4.68446 13.3983 5.00003 13.5626L12.5875 17.3126L16.3375 24.9251C16.4883 25.2231 16.7189 25.4732 17.0037 25.6476C17.2884 25.822 17.6161 25.9138 17.95 25.9126H18.075C18.4326 25.8863 18.7741 25.753 19.055 25.5301C19.3358 25.3071 19.5432 25.0049 19.65 24.6626L25.8375 6.4251C25.948 6.11002 25.9667 5.77003 25.8915 5.44472C25.8162 5.11941 25.6501 4.82217 25.4125 4.5876ZM6.06253 11.9751L22.025 6.6501L13.1625 15.5126L6.06253 11.9751ZM18.0375 23.9376L14.4875 16.8376L23.35 7.9751L18.0375 23.9376Z" fill="#0C0C0C"/>
</svg>
