<svg width="27" height="21" viewBox="0 0 27 21" fill="none" xmlns="http://www.w3.org/2000/svg">
<path d="M1.875 1.45825V0.489502C1.61807 0.489502 1.37167 0.591566 1.18999 0.773242C1.00831 0.954918 0.90625 1.20132 0.90625 1.45825H1.875ZM25.125 1.45825H26.0938C26.0938 1.20132 25.9917 0.954918 25.81 0.773242C25.6283 0.591566 25.3819 0.489502 25.125 0.489502V1.45825ZM1.875 2.427H25.125V0.489502H1.875V2.427ZM24.1562 1.45825V16.9583H26.0938V1.45825H24.1562ZM22.5417 18.5728H4.45833V20.5103H22.5417V18.5728ZM2.84375 16.9583V1.45825H0.90625V16.9583H2.84375ZM4.45833 18.5728C3.56708 18.5728 2.84375 17.8495 2.84375 16.9583H0.90625C0.90625 17.9003 1.28049 18.8038 1.94663 19.47C2.61278 20.1361 3.51626 20.5103 4.45833 20.5103V18.5728ZM24.1562 16.9583C24.1562 17.8495 23.4329 18.5728 22.5417 18.5728V20.5103C23.4837 20.5103 24.3872 20.1361 25.0534 19.47C25.7195 18.8038 26.0938 17.9003 26.0938 16.9583H24.1562Z" fill="black" fill-opacity="0.56"/>
</svg>
